<svg width="151" height="23" viewBox="0 0 151 23" xmlns="http://www.w3.org/2000/svg"><title>Artboard</title><g fill="none" fill-rule="evenodd"><path d="M129.0577 17.11442c-.30556-.36715-.7516-.57632-1.22566-.57632-.2353 0-.46216.05197-.6782.15203 0 0-.1228.0631-.169.09153-1.15463.64743-2.3251.9577-3.58826.9577-3.9519 0-5.17835-2.6647-5.1839-3.64022 0-.00104-.0021-.189.1022-.23943.12044-.05713.29236.045.29236.045.52687.3064 2.25536.85893 4.82262.9776 1.08992.04913 2.436-.0949 3.52618-.36198 1.3049-.31414 2.63566-.9008 3.20768-2.3513.06893-.16885.1236-.34725.16136-.5303.32246-1.64055-.0346-3.43132-.9827-4.91336-.24612-.39042-.5546-.75706-.8847-1.0632-.89343-.8297-2.05333-1.44377-3.26922-1.73568-.7825-.1877-1.5349-.28648-2.17164-.28648-2.70036 0-5.1847 1.2385-6.64038 3.3178-1.66405 2.37924-2.11116 5.02246-1.32548 7.86142.77194 2.78982 3.3746 6.05384 8.16393 6.05384 2.42727 0 4.55376-.6694 6.31474-1.98933.21708-.16444.47193-.3669.65336-.51944l-1.1253-1.24988zm-6.14494-10.2272c1.38993 0 3.1789.72137 3.9239 2.09896.30425.56598.46323 1.45024-.09374 2.07155-.604.68906-1.84258 1.0376-3.67434 1.0376-1.1158 0-2.32535-.20866-3.14536-.38112-1.71053-.3661-1.71053-.44704-1.71053-.62932.02032-1.37112 1.20082-4.19767 4.70006-4.19767zM115.1962 19.753l-6.86828-7.63596 4.93644-5.83976c.24297-.27692.3729-.6314.3729-.99467 0-.8452-.70407-1.5322-1.56845-1.5322h-.55247c-.50733 0-.93093.25597-1.2835.65622l-6.1555 7.3293v-6.4621c0-.83488-.7054-1.5216-1.57294-1.5216h-.40196c-.8612 0-1.56845.68672-1.56845 1.53323v15.19823h3.5399l.00343-7.83505 7.37456 8.11506 3.7443-1.0107zM72.51866 3.89106h-5.3685c-.86437 0-1.56766.68983-1.56766 1.53324v15.19822h3.537v-4.3903l.3354.1192c1.03102.37465 2.0631.5616 3.06164.5616 3.654 0 6.51783-2.86327 6.51783-6.51642 0-3.64694-2.86383-6.50554-6.51572-6.50554zm1.6902 9.34708c-.66234.4641-1.4665.69888-2.38873.69888-.82582 0-1.73536-.19986-2.5543-.56107l-.14632-.06567v-5.5975c0-.26243.13337-.48867.48593-.48867h2.67897c2.06627 0 3.34554 1.64728 3.34554 3.1725 0 1.22556-.47748 2.18248-1.4211 2.84154zM62.2845 19.09807c1.3223-1.41482 1.59195-3.16628.76005-4.9273-.69985-1.47767-2.32323-2.2311-3.8196-2.77122-.3935-.14247-2.5382-.83488-2.5382-.83488-.70512-.25313-1.5856-.5665-2.0285-1.2235-.42043-.6314-.32457-1.50816.2192-2.0382.45372-.4429 1.09335-.6676 1.90517-.6676.68374 0 1.32206.16212 1.7351.29838.4986.166 1.8748.76818 1.8748.76818.2118.1016.4429.15177.68163.15177.4891 0 .94176-.2164 1.24256-.6009.2517-.28905.38717-.6451.38717-1.00836 0-.59364-.48593-1.1017-.98375-1.39052 0 0-1.98572-1.239-4.56882-1.239-1.93845 0-3.46042.47962-4.66258 1.47248-1.64794 1.3569-2.13493 3.63453-1.06958 5.4677 1.2394 2.1269 4.69454 3.02046 5.4385 3.22627 1.2428.34362 3.3059 1.0451 3.01435 2.55583-.1978 1.03087-1.39204 1.76646-2.83585 1.65968-1.36087-.09774-2.87888-.7493-4.40534-1.89134l-1.66854 2.51886c.62458.5096 3.03708 2.27426 6.3599 2.27426.07316 0 .14843-.00026.22238-.00388 2.2448-.10342 3.6627-.63967 4.73995-1.7967zM89.5923 3.63095c-4.85695 0-8.80674 3.87163-8.80674 8.62804 0 4.75562 3.9498 8.6226 8.80674 8.6226 4.85906 0 8.8099-3.86698 8.8099-8.6226 0-4.75642-3.95084-8.62805-8.8099-8.62805zm0 14.03032c-3.04553 0-5.5172-2.42087-5.5172-5.40383 0-2.98452 2.47167-5.40358 5.5172-5.40358 3.04896 0 5.51903 2.41906 5.51903 5.40358 0 2.98296-2.47007 5.40383-5.51903 5.40383zm51.60973-14.03032c-4.85906 0-8.80858 3.87163-8.80858 8.62804 0 4.75562 3.94952 8.6226 8.80858 8.6226 4.8572 0 8.80885-3.86698 8.80885-8.6226 0-4.75642-3.95163-8.62805-8.80885-8.62805zm0 14.03032c-3.0487 0-5.51797-2.42087-5.51797-5.40383 0-2.98452 2.46927-5.40358 5.51797-5.40358 3.04764 0 5.5193 2.41906 5.5193 5.40358 0 2.98296-2.47166 5.40383-5.5193 5.40383z" fill="#FFF"/><path d="M22.1939 19.7504l.48614-.96738c.25956 0 .49826-.1067.669-.27874C26.09915 15.72648 29.91595 14 34.13727 14c4.52872 0 8.59524 1.98515 11.3684 5.13125.30667.3688.49434.84085.49434 1.35672 0 1.1629-.94377 2.10335-2.1081 2.10335-.60815 0-1.1545-.25916-1.53892-.6676-2.00333-2.27807-4.9411-3.71628-8.21572-3.71628-2.0492 0-3.9674.56163-5.60545 1.54295-.75977.45394-1.6736.7251-2.2987 1.343-.06182.06387-2.10675 1.17692-3.47987.3374" id="b" fill="#63B0FC"/><path d="M34.10812 15.03333c-1.04764 0-2.01426-.38175-2.81038-1.02923-1.49126.34262-2.9216.8738-4.20924 1.70543.97132 1.41865 2.21795 2.36003 3.6902 3.03815 1.03142-.39543 2.18432-.49652 3.32942-.49652 1.14346 0 2.2241.10164 3.25272.49652 1.476-.67703 2.85858-1.6143 3.83154-3.03815C39.90378 14.8768 38.41 14.34317 36.91874 14c-.79824.6494-1.76674 1.03333-2.81062 1.03333z" fill="#3080D2"/><path d="M25 9.00035C25 13.9636 29.0376 18 34.00083 18 38.96498 18 43 13.9636 43 9.00035 43 4.03852 38.96498 0 34.00083 0 29.0376 0 25 4.03852 25 9.00035zm4-.00047C29 6.2385 31.2384 4 34 4c2.76064 0 5 2.2385 5 4.99988C39 11.76365 36.76064 14 34 14c-2.7616 0-5-2.23635-5-5.00012z" fill="#73DBFF"/><path d="M11.7926 14c4.196 0 7.98894 1.72404 10.71573 4.50428 0 0 .3831.4312.65816.68277.89324.76034 1.95015 1.15835 3.21576 1.15835.91422 0 1.3756-.2177 2.06067-.54584-.7574.45542-.89704.9456-1.51936 1.5672-.0595.06337-.12022.12504-.18265.185-.01487.01786-.03292.03548-.04682.0492C25.775 22.46725 24.5411 23 23.1821 23c-1.3656 0-2.59852-.53275-3.51395-1.40126-.01976-.0115-.0356-.02912-.05146-.04698-.06146-.05996-.12315-.12163-.18265-.185-1.9606-1.95237-4.6596-3.15932-7.64145-3.15932-3.2557 0-6.17613 1.4382-8.1655 3.7163-.3831.40842-.92616.66758-1.53165.66758C.9391 22.59132 0 21.65087 0 20.48797c0-.51587.18874-.98793.4943-1.35354C3.25107 15.98515 7.29102 14 11.7926 14z" id="y" fill="#FE8142"/><path d="M12.10812 15.03333c-1.04764 0-2.01426-.38175-2.81038-1.02923-1.49126.34262-3.0101.81034-4.29774 1.64198.97132 1.41864 2.09945 2.42348 3.5717 3.1016 1.03143-.39543 2.39132-.49652 3.53642-.49652 1.14346 0 1.972.10164 3.00062.49652 1.476-.67703 3.02595-1.54233 3.9989-2.96617-1.28858-.83273-2.69764-1.43833-4.1889-1.7815-.79824.6494-1.76674 1.03333-2.81062 1.03333z" id="y" fill="#D95E32"/><path d="M3 9.00035C3 13.9636 7.0376 18 12.00177 18 16.96404 18 21 13.9636 21 9.00035 21 4.03852 16.96404 0 12.00177 0 7.0376 0 3 4.03852 3 9.00035zm4-.00047C7 6.2385 9.23862 4 12.00143 4 14.76043 4 17 6.2385 17 8.99988 17 11.76365 14.76042 14 12.00143 14 9.23863 14 7 11.76365 7 8.99988z" fill="#FFC94D"/></g></svg>